<svg width="296" height="237" viewBox="0 0 296 237" fill="none" xmlns="http://www.w3.org/2000/svg">
<rect width="296" height="237" fill="#1B1C21"/>
<path fill-rule="evenodd" clip-rule="evenodd" d="M245.088 77.0249C249.665 77.0249 253.376 80.7387 253.376 85.3199C253.376 89.9011 249.665 93.6149 245.088 93.6149H197.728C202.305 93.6149 206.016 97.3287 206.016 101.91C206.016 106.491 202.305 110.205 197.728 110.205H223.776C228.353 110.205 232.064 113.919 232.064 118.5C232.064 123.081 228.353 126.795 223.776 126.795H211.73C205.959 126.795 201.28 130.509 201.28 135.09C201.28 138.144 203.648 140.909 208.384 143.385C212.961 143.385 216.672 147.099 216.672 151.68C216.672 156.261 212.961 159.975 208.384 159.975H110.112C105.535 159.975 101.824 156.261 101.824 151.68C101.824 147.099 105.535 143.385 110.112 143.385H63.9359C59.3586 143.385 55.6479 139.671 55.6479 135.09C55.6479 130.509 59.3586 126.795 63.9359 126.795H111.296C115.873 126.795 119.584 123.081 119.584 118.5C119.584 113.919 115.873 110.205 111.296 110.205H81.6959C77.1186 110.205 73.4079 106.491 73.4079 101.91C73.4079 97.3287 77.1186 93.6149 81.6959 93.6149H129.056C124.479 93.6149 120.768 89.9011 120.768 85.3199C120.768 80.7387 124.479 77.0249 129.056 77.0249H245.088ZM245.088 110.205C249.665 110.205 253.376 113.919 253.376 118.5C253.376 123.081 249.665 126.795 245.088 126.795C240.511 126.795 236.8 123.081 236.8 118.5C236.8 113.919 240.511 110.205 245.088 110.205Z" fill="#15161A"/>
<path fill-rule="evenodd" clip-rule="evenodd" d="M181.956 75.8401L192.962 156.227L193.951 164.292C194.269 166.89 192.423 169.255 189.827 169.575L120.484 178.102C117.888 178.421 115.525 176.573 115.206 173.975L104.539 86.9704C104.38 85.6713 105.303 84.4888 106.601 84.3292C106.609 84.3282 106.618 84.3272 106.626 84.3263L112.379 83.68M117.029 83.1515L122.46 82.5414L117.029 83.1515Z" fill="#1B1C21"/>
<path d="M183.194 75.6703C183.1 74.9863 182.47 74.5079 181.786 74.6017C181.102 74.6955 180.624 75.326 180.717 76.0099L183.194 75.6703ZM192.962 156.227L194.203 156.075C194.202 156.069 194.201 156.063 194.201 156.058L192.962 156.227ZM193.951 164.292L195.192 164.14L193.951 164.292ZM189.827 169.575L189.979 170.815L189.827 169.575ZM120.484 178.102L120.636 179.342L120.484 178.102ZM115.206 173.975L116.447 173.823L115.206 173.975ZM104.539 86.9704L105.78 86.818L104.539 86.9704ZM106.626 84.3263L106.765 85.5685L106.626 84.3263ZM112.518 84.9222C113.204 84.8451 113.698 84.2265 113.621 83.5404C113.544 82.8543 112.925 82.3607 112.239 82.4377L112.518 84.9222ZM116.89 81.9093C116.204 81.9863 115.71 82.605 115.787 83.291C115.864 83.9771 116.482 84.4708 117.168 84.3937L116.89 81.9093ZM122.6 83.7836C123.286 83.7065 123.779 83.0879 123.703 82.4019C123.626 81.7158 123.007 81.2221 122.321 81.2992L122.6 83.7836ZM180.717 76.0099L191.724 156.397L194.201 156.058L183.194 75.6703L180.717 76.0099ZM191.721 156.38L192.71 164.445L195.192 164.14L194.203 156.075L191.721 156.38ZM192.71 164.445C192.945 166.358 191.585 168.099 189.674 168.334L189.979 170.815C193.261 170.412 195.594 167.423 195.192 164.14L192.71 164.445ZM189.674 168.334L120.332 176.861L120.636 179.342L189.979 170.815L189.674 168.334ZM120.332 176.861C118.421 177.096 116.681 175.737 116.447 173.823L113.965 174.128C114.368 177.41 117.354 179.746 120.636 179.342L120.332 176.861ZM116.447 173.823L105.78 86.818L103.298 87.1228L113.965 174.128L116.447 173.823ZM105.78 86.818C105.704 86.2034 106.141 85.6452 106.753 85.5699L106.449 83.0885C104.465 83.3325 103.055 85.1393 103.298 87.1228L105.78 86.818ZM106.753 85.5699C106.757 85.5694 106.761 85.5689 106.765 85.5685L106.486 83.0841C106.474 83.0855 106.461 83.087 106.449 83.0885L106.753 85.5699ZM106.765 85.5685L112.518 84.9222L112.239 82.4377L106.486 83.0841L106.765 85.5685ZM117.168 84.3937L122.6 83.7836L122.321 81.2992L116.89 81.9093L117.168 84.3937Z" fill="#7688C9"/>
<path fill-rule="evenodd" clip-rule="evenodd" d="M178.95 80.8989L188.919 153.757L189.815 161.067C190.104 163.421 188.454 165.562 186.129 165.847L124.038 173.478C121.713 173.763 119.594 172.086 119.305 169.731L109.61 90.708C109.476 89.6117 110.255 88.6137 111.352 88.479L119.398 87.4901" fill="#27282E"/>
<path d="M122.549 63.25C122.549 61.7312 123.781 60.5 125.299 60.5H180.278C181.008 60.5 181.707 60.7898 182.223 61.3057L198.572 77.6584C199.088 78.1741 199.377 78.8735 199.377 79.6027V154.79C199.377 156.309 198.146 157.54 196.627 157.54H125.299C123.781 157.54 122.549 156.309 122.549 154.79V63.25Z" fill="#1B1C21" stroke="#7688C9" stroke-width="2.5"/>
<path d="M180.5 62.0974V75.8401C180.5 77.8034 182.09 79.3951 184.052 79.3951H193.445" stroke="#7688C9" stroke-width="2.5" stroke-linecap="round" stroke-linejoin="round"/>
<path d="M135.712 79.395H166.496M135.712 93.615H186.624M135.712 109.02H186.624M135.712 124.425H186.624M135.712 139.83H166.496" stroke="#7688C9" stroke-width="2.5" stroke-linecap="round" stroke-linejoin="round"/>
</svg>
